<svg width="15" height="18" viewBox="0 0 15 18" fill="none" xmlns="http://www.w3.org/2000/svg">
  <path d="M6.16684 3.5833C6.16702 4.28478 5.91437 4.96284 5.45521 5.49317C4.99605 6.0235 4.36113 6.37059 3.66684 6.4708V8.5833H8.87517C9.37245 8.5833 9.84937 8.38575 10.201 8.03412C10.5526 7.68249 10.7502 7.20558 10.7502 6.7083V6.37913C10.0804 6.17728 9.5055 5.74159 9.13004 5.15142C8.75458 4.56124 8.60359 3.85584 8.70456 3.16369C8.80553 2.47153 9.15175 1.83866 9.68016 1.38034C10.2086 0.922026 10.884 0.668745 11.5835 0.666631C12.3218 0.665301 13.0331 0.944014 13.574 1.44655C14.1149 1.94908 14.4451 2.63804 14.4979 3.37445C14.5508 4.11086 14.3224 4.83991 13.8589 5.41455C13.3953 5.98919 12.7311 6.36666 12.0002 6.4708V6.7083C12.0002 7.5371 11.6709 8.33196 11.0849 8.91801C10.4988 9.50406 9.70397 9.8333 8.87517 9.8333H3.66684V11.5291C4.37844 11.6318 5.02703 11.9938 5.48811 12.5454C5.94918 13.0971 6.19026 13.7996 6.16504 14.5182C6.13983 15.2367 5.85012 15.9206 5.35151 16.4386C4.8529 16.9566 4.18054 17.2722 3.46349 17.3247C2.74644 17.3773 2.03523 17.1632 1.46639 16.7235C0.89755 16.2838 0.511163 15.6495 0.381401 14.9423C0.251638 14.2351 0.387644 13.5049 0.763311 12.8919C1.13898 12.2789 1.72783 11.8262 2.41684 11.6208V6.37913C1.74711 6.17728 1.17217 5.74159 0.796707 5.15142C0.421247 4.56124 0.270254 3.85584 0.371225 3.16369C0.472196 2.47153 0.818414 1.83866 1.34683 1.38034C1.87524 0.922026 2.55069 0.668745 3.25017 0.666631C4.02372 0.666631 4.76558 0.973922 5.31257 1.5209C5.85955 2.06788 6.16684 2.80975 6.16684 3.5833ZM3.25017 5.24996C3.6922 5.24996 4.11612 5.07437 4.42868 4.76181C4.74124 4.44925 4.91684 4.02533 4.91684 3.5833C4.91684 3.14127 4.74124 2.71735 4.42868 2.40479C4.11612 2.09223 3.6922 1.91663 3.25017 1.91663C2.80814 1.91663 2.38422 2.09223 2.07166 2.40479C1.7591 2.71735 1.5835 3.14127 1.5835 3.5833C1.5835 4.02533 1.7591 4.44925 2.07166 4.76181C2.38422 5.07437 2.80814 5.24996 3.25017 5.24996ZM11.5835 5.24996C12.0255 5.24996 12.4495 5.07437 12.762 4.76181C13.0746 4.44925 13.2502 4.02533 13.2502 3.5833C13.2502 3.14127 13.0746 2.71735 12.762 2.40479C12.4495 2.09223 12.0255 1.91663 11.5835 1.91663C11.1415 1.91663 10.7176 2.09223 10.405 2.40479C10.0924 2.71735 9.91684 3.14127 9.91684 3.5833C9.91684 4.02533 10.0924 4.44925 10.405 4.76181C10.7176 5.07437 11.1415 5.24996 11.5835 5.24996ZM4.91684 14.4166C4.91684 13.9746 4.74124 13.5507 4.42868 13.2381C4.11612 12.9256 3.6922 12.75 3.25017 12.75C2.80814 12.75 2.38422 12.9256 2.07166 13.2381C1.7591 13.5507 1.5835 13.9746 1.5835 14.4166C1.5835 14.8587 1.7591 15.2826 2.07166 15.5951C2.38422 15.9077 2.80814 16.0833 3.25017 16.0833C3.6922 16.0833 4.11612 15.9077 4.42868 15.5951C4.74124 15.2826 4.91684 14.8587 4.91684 14.4166Z" fill="black"/>
</svg>
