<svg width="18" height="17" viewBox="0 0 18 17" fill="none" xmlns="http://www.w3.org/2000/svg">
  <path d="M16.7359 5.89649L11.7769 5.17579L9.56014 0.681648C9.49959 0.558601 9.39998 0.458992 9.27693 0.398445C8.96834 0.246101 8.59334 0.373054 8.43904 0.681648L6.22224 5.17579L1.26325 5.89649C1.12653 5.91603 1.00153 5.98048 0.905829 6.07814C0.790129 6.19705 0.726373 6.35704 0.728571 6.52294C0.730768 6.68885 0.798739 6.84709 0.917548 6.9629L4.50544 10.461L3.65779 15.4004C3.63791 15.5153 3.65062 15.6335 3.69449 15.7415C3.73835 15.8496 3.81162 15.9432 3.90597 16.0117C4.00032 16.0802 4.11198 16.1209 4.22829 16.1292C4.34461 16.1375 4.46092 16.1131 4.56404 16.0586L8.99959 13.7266L13.4351 16.0586C13.5562 16.1231 13.6969 16.1445 13.8316 16.1211C14.1715 16.0625 14.4 15.7403 14.3414 15.4004L13.4937 10.461L17.0816 6.9629C17.1793 6.8672 17.2437 6.7422 17.2633 6.60548C17.316 6.26368 17.0777 5.94728 16.7359 5.89649Z" fill="black"/>
</svg>
