<svg width="22" height="22" viewBox="0 0 22 22" fill="none" xmlns="http://www.w3.org/2000/svg">
  <path d="M10.0741 1.633C10.3941 0.789 11.6051 0.789 11.9261 1.633L13.9961 7.367C14.1411 7.747 14.5101 8 14.9221 8H20.0091C20.9491 8 21.3591 9.17 20.6201 9.743L17.0001 13C16.8379 13.1247 16.7194 13.2975 16.6616 13.4937C16.6037 13.6898 16.6095 13.8993 16.6781 14.092L18.0001 19.695C18.3221 20.595 17.2801 21.368 16.4921 20.814L11.5751 17.694C11.4067 17.5757 11.2059 17.5122 11.0001 17.5122C10.7943 17.5122 10.5935 17.5757 10.4251 17.694L5.50808 20.814C4.72108 21.368 3.67808 20.594 4.00008 19.695L5.32208 14.092C5.39066 13.8993 5.39643 13.6898 5.33859 13.4937C5.28074 13.2975 5.16223 13.1247 5.00008 13L1.38008 9.743C0.640077 9.17 1.05208 8 1.99008 8H7.07708C7.27737 8.00067 7.47314 7.9405 7.63849 7.82747C7.80385 7.71444 7.93098 7.55387 8.00308 7.367L10.0731 1.633H10.0741Z" stroke="#989898" stroke-width="2" stroke-linecap="round" stroke-linejoin="round"/>
</svg>
 