<svg width="16" height="16" viewBox="0 0 16 16" fill="none" xmlns="http://www.w3.org/2000/svg">
  <path d="M4 4H5V6H4V4Z" fill="#0587FF"/>
  <path d="M4 7H5V9H4V7Z" fill="#0587FF"/>
  <path d="M7 4H8V6H7V4Z" fill="#0587FF"/>
  <path d="M7 7H8V9H7V7Z" fill="#0587FF"/>
  <path d="M4 10H5V12H4V10Z" fill="#0587FF"/>
  <path d="M7 10H8V12H7V10Z" fill="#0587FF"/>
  <path d="M15 7C15 6.73478 14.8946 6.48043 14.7071 6.29289C14.5196 6.10536 14.2652 6 14 6H11V2C11 1.73478 10.8946 1.48043 10.7071 1.29289C10.5196 1.10536 10.2652 1 10 1H2C1.73478 1 1.48043 1.10536 1.29289 1.29289C1.10536 1.48043 1 1.73478 1 2V15H15V7ZM2 2H10V14H2V2ZM11 14V7H14V14H11Z" fill="#0587FF"/>
</svg>
