<svg width="16" height="16" viewBox="0 0 16 16" fill="none" xmlns="http://www.w3.org/2000/svg">
  <path d="M7.93506 3.9873C7.5395 3.9873 7.15282 4.1046 6.82392 4.32436C6.49502 4.54413 6.23868 4.85648 6.0873 5.22194C5.93593 5.58739 5.89632 5.98952 5.97349 6.37748C6.05066 6.76544 6.24114 7.12181 6.52085 7.40151C6.80055 7.68122 7.15692 7.8717 7.54488 7.94887C7.93284 8.02604 8.33497 7.98643 8.70043 7.83506C9.06588 7.68368 9.37824 7.42734 9.598 7.09844C9.81776 6.76954 9.93506 6.38286 9.93506 5.9873C9.93446 5.45705 9.72355 4.9487 9.34861 4.57376C8.97366 4.19882 8.46531 3.98791 7.93506 3.9873ZM7.93506 6.9873C7.73728 6.9873 7.54394 6.92865 7.37949 6.81877C7.21504 6.70889 7.08687 6.55271 7.01118 6.36999C6.93549 6.18726 6.91569 5.98619 6.95427 5.79221C6.99286 5.59823 7.0881 5.42005 7.22795 5.2802C7.3678 5.14034 7.54599 5.0451 7.73997 5.00652C7.93395 4.96793 8.13502 4.98774 8.31774 5.06342C8.50047 5.13911 8.65665 5.26728 8.76653 5.43173C8.87641 5.59618 8.93506 5.78952 8.93506 5.9873C8.93475 6.25242 8.8293 6.5066 8.64183 6.69407C8.45436 6.88154 8.20018 6.98699 7.93506 6.9873Z" fill="#0587FF"/>
  <path d="M11.7782 2.14109C10.828 1.19111 9.55958 0.626776 8.21773 0.557017C6.87589 0.487259 5.55577 0.917019 4.51216 1.76335C3.46855 2.60968 2.77543 3.81259 2.56657 5.13991C2.35771 6.46724 2.64792 7.82487 3.38118 8.95081L7.15953 14.7512C7.24361 14.8803 7.35857 14.9863 7.494 15.0597C7.62943 15.1331 7.78103 15.1716 7.93507 15.1716C8.08911 15.1716 8.24072 15.1331 8.37615 15.0597C8.51157 14.9863 8.62654 14.8803 8.71062 14.7512L12.4891 8.95081C13.1695 7.90634 13.4702 6.65974 13.3407 5.41995C13.2113 4.18015 12.6597 3.02252 11.7782 2.14109ZM11.6512 8.40496L7.93509 14.1096L4.21893 8.40496C3.08143 6.65875 3.3254 4.32187 4.79903 2.84819C5.21086 2.43634 5.69977 2.10965 6.23786 1.88677C6.77595 1.66388 7.35267 1.54916 7.93509 1.54916C8.51751 1.54916 9.09423 1.66388 9.63232 1.88677C10.1704 2.10965 10.6593 2.43634 11.0711 2.84819C12.5448 4.32187 12.7887 6.65875 11.6512 8.40496Z" fill="#0587FF"/>
</svg>
