<svg width="16" height="16" viewBox="0 0 16 16" fill="none" xmlns="http://www.w3.org/2000/svg">
  <path fill-rule="evenodd" clip-rule="evenodd" d="M4.9765 0.710687C5.7585 0.674687 6.00784 0.666687 7.99984 0.666687C9.99184 0.666687 10.2412 0.675354 11.0225 0.710687C11.8038 0.74602 12.3372 0.870687 12.8038 1.05135C13.2925 1.23602 13.7358 1.52469 14.1025 1.89802C14.4758 2.26402 14.7638 2.70669 14.9478 3.19602C15.1292 3.66269 15.2532 4.19602 15.2892 4.97602C15.3252 5.75935 15.3332 6.00869 15.3332 8.00002C15.3332 9.99202 15.3245 10.2414 15.2892 11.0234C15.2538 11.8034 15.1292 12.3367 14.9478 12.8034C14.7638 13.2927 14.4754 13.7362 14.1025 14.1027C13.7358 14.476 13.2925 14.764 12.8038 14.948C12.3372 15.1294 11.8038 15.2534 11.0238 15.2894C10.2412 15.3254 9.99184 15.3334 7.99984 15.3334C6.00784 15.3334 5.7585 15.3247 4.9765 15.2894C4.1965 15.254 3.66317 15.1294 3.1965 14.948C2.70712 14.764 2.26372 14.4755 1.89717 14.1027C1.52409 13.7365 1.23538 13.2933 1.05117 12.804C0.870504 12.3374 0.746504 11.804 0.710504 11.024C0.674504 10.2407 0.666504 9.99135 0.666504 8.00002C0.666504 6.00802 0.675171 5.75869 0.710504 4.97735C0.745837 4.19602 0.870504 3.66269 1.05117 3.19602C1.23565 2.70674 1.52458 2.26356 1.89784 1.89735C2.26386 1.52435 2.70682 1.23565 3.19584 1.05135C3.6625 0.870687 4.19584 0.746687 4.97584 0.710687H4.9765ZM10.9632 2.03069C10.1898 1.99535 9.95784 1.98802 7.99984 1.98802C6.04184 1.98802 5.80984 1.99535 5.0365 2.03069C4.32117 2.06335 3.93317 2.18269 3.6745 2.28335C3.3325 2.41669 3.08784 2.57469 2.83117 2.83135C2.58787 3.06805 2.40062 3.35621 2.28317 3.67469C2.1825 3.93335 2.06317 4.32135 2.0305 5.03669C1.99517 5.81002 1.98784 6.04202 1.98784 8.00002C1.98784 9.95802 1.99517 10.19 2.0305 10.9634C2.06317 11.6787 2.1825 12.0667 2.28317 12.3254C2.4005 12.6434 2.58784 12.932 2.83117 13.1687C3.06784 13.412 3.3565 13.5994 3.6745 13.7167C3.93317 13.8174 4.32117 13.9367 5.0365 13.9694C5.80984 14.0047 6.04117 14.012 7.99984 14.012C9.9585 14.012 10.1898 14.0047 10.9632 13.9694C11.6785 13.9367 12.0665 13.8174 12.3252 13.7167C12.6672 13.5834 12.9118 13.4254 13.1685 13.1687C13.4118 12.932 13.5992 12.6434 13.7165 12.3254C13.8172 12.0667 13.9365 11.6787 13.9692 10.9634C14.0045 10.19 14.0118 9.95802 14.0118 8.00002C14.0118 6.04202 14.0045 5.81002 13.9692 5.03669C13.9365 4.32135 13.8172 3.93335 13.7165 3.67469C13.5832 3.33269 13.4252 3.08802 13.1685 2.83135C12.9318 2.58807 12.6436 2.40083 12.3252 2.28335C12.0665 2.18269 11.6785 2.06335 10.9632 2.03069ZM7.06317 10.2607C7.58628 10.4784 8.16876 10.5078 8.71112 10.3438C9.25349 10.1798 9.7221 9.83263 10.0369 9.36152C10.3517 8.8904 10.4932 8.3246 10.4372 7.76076C10.3812 7.19691 10.1312 6.67 9.72984 6.27002C9.474 6.01434 9.16465 5.81856 8.82406 5.69678C8.48347 5.57501 8.12012 5.53026 7.76017 5.56576C7.40021 5.60127 7.05261 5.71614 6.74237 5.90211C6.43214 6.08808 6.167 6.34052 5.96604 6.64125C5.76508 6.94199 5.6333 7.28355 5.58018 7.64133C5.52707 7.99911 5.55394 8.36421 5.65886 8.71036C5.76379 9.05651 5.94416 9.37509 6.18698 9.64317C6.42981 9.91124 6.72905 10.1221 7.06317 10.2607ZM5.3345 5.33469C5.68452 4.98467 6.10005 4.70702 6.55737 4.51759C7.01469 4.32817 7.50484 4.23067 7.99984 4.23067C8.49483 4.23067 8.98499 4.32817 9.4423 4.51759C9.89962 4.70702 10.3152 4.98467 10.6652 5.33469C11.0152 5.6847 11.2928 6.10023 11.4823 6.55755C11.6717 7.01487 11.7692 7.50502 11.7692 8.00002C11.7692 8.49502 11.6717 8.98517 11.4823 9.44249C11.2928 9.89981 11.0152 10.3153 10.6652 10.6654C9.95828 11.3722 8.99953 11.7694 7.99984 11.7694C7.00014 11.7694 6.04139 11.3722 5.3345 10.6654C4.62761 9.95846 4.23049 8.99971 4.23049 8.00002C4.23049 7.00033 4.62761 6.04158 5.3345 5.33469ZM12.6052 4.79202C12.6919 4.7102 12.7613 4.61181 12.8094 4.50267C12.8574 4.39353 12.883 4.27587 12.8848 4.15664C12.8865 4.03741 12.8643 3.91905 12.8195 3.80856C12.7747 3.69807 12.7081 3.59769 12.6238 3.51338C12.5395 3.42907 12.4391 3.36252 12.3286 3.3177C12.2181 3.27287 12.0998 3.25067 11.9805 3.25241C11.8613 3.25415 11.7437 3.27979 11.6345 3.32782C11.5254 3.37585 11.427 3.44528 11.3452 3.53202C11.186 3.70071 11.0989 3.92477 11.1023 4.15664C11.1057 4.38851 11.1993 4.60994 11.3633 4.77392C11.5273 4.93789 11.7487 5.03151 11.9805 5.03489C12.2124 5.03827 12.4365 4.95115 12.6052 4.79202Z" fill="#0587FF"/>
</svg>
